<svg width="302" height="76" viewBox="0 0 302 76" fill="none" xmlns="http://www.w3.org/2000/svg">
<rect y="11" width="55" height="55" rx="5.36585" fill="#3B82F6"/>
<path d="M19.7582 60.3614C19.9561 60.576 20.0613 60.8599 20.051 61.1516C20.0407 61.4432 19.9157 61.719 19.7032 61.919L17.314 64.1531C17.1007 64.3514 16.8174 64.4568 16.5264 64.4463C16.2353 64.4357 15.9604 64.3101 15.7619 64.097L1.84801 49.1018C1.65029 48.8872 1.54527 48.6032 1.55577 48.3115C1.56628 48.0198 1.69146 47.7441 1.90411 47.5442L4.29662 45.3134C4.40218 45.2152 4.52609 45.1387 4.66124 45.0883C4.79639 45.0379 4.94015 45.0147 5.08429 45.0199C5.22843 45.0251 5.37013 45.0586 5.5013 45.1186C5.63246 45.1786 5.75052 45.2639 5.84871 45.3695L19.7582 60.3614ZM37.5122 32.1464C37.7099 32.3611 37.815 32.6451 37.8045 32.9368C37.794 33.2284 37.6688 33.5042 37.4561 33.704L22.4191 47.751C22.2058 47.9493 21.9225 48.0547 21.6315 48.0442C21.3404 48.0336 21.0655 47.908 20.867 47.6949L17.2777 43.8218C17.08 43.6072 16.975 43.3232 16.9855 43.0315C16.996 42.7399 17.1212 42.4641 17.3338 42.2642L32.3675 28.2172C32.473 28.119 32.5968 28.0425 32.7319 27.9922C32.8669 27.9418 33.0106 27.9186 33.1546 27.9238C33.2987 27.929 33.4403 27.9625 33.5714 28.0225C33.7024 28.0825 33.8204 28.1677 33.9185 28.2733L37.5122 32.1464ZM24.8743 55.5797C25.2857 56.023 25.2604 56.7237 24.8182 57.1373L22.4257 59.3703C22.3201 59.4686 22.1962 59.5451 22.0611 59.5955C21.9259 59.6459 21.7822 59.6691 21.638 59.6639C21.4939 59.6587 21.3522 59.6251 21.221 59.5651C21.0899 59.5051 20.9718 59.4199 20.8736 59.3142L6.96742 44.319C6.76955 44.1045 6.66433 43.8206 6.67463 43.5289C6.68493 43.2373 6.80991 42.9615 7.02242 42.7614L9.41052 40.5295C9.62386 40.3313 9.90715 40.2259 10.1982 40.2364C10.4892 40.2469 10.7641 40.3725 10.9626 40.5856L24.8743 55.5797ZM48.0436 32.6843C48.2412 32.8991 48.346 33.1832 48.3353 33.4749C48.3246 33.7666 48.1992 34.0422 47.9864 34.2419L45.595 36.4749C45.3816 36.6734 45.0982 36.779 44.807 36.7687C44.5158 36.7584 44.2406 36.633 44.0418 36.4199L30.1334 21.428C29.9353 21.2137 29.8299 20.9297 29.8402 20.6379C29.8505 20.3462 29.9757 20.0703 30.1884 19.8704L32.5864 17.6319C32.6919 17.5337 32.8157 17.4572 32.9508 17.4068C33.0858 17.3565 33.2295 17.3333 33.3735 17.3385C33.5176 17.3437 33.6592 17.3772 33.7903 17.4372C33.9214 17.4972 34.0393 17.5824 34.1374 17.688L48.0436 32.6843ZM53.152 27.9103C53.3495 28.1253 53.4544 28.4095 53.4439 28.7012C53.4334 28.993 53.3084 29.2688 53.0959 29.469L50.7089 31.7009C50.6035 31.7993 50.4798 31.8758 50.3447 31.9263C50.2097 31.9767 50.0661 32.0001 49.922 31.995C49.778 31.9899 49.6363 31.9564 49.5052 31.8965C49.3741 31.8366 49.2561 31.7515 49.1579 31.6459L35.2517 16.6474C35.0541 16.4326 34.949 16.1486 34.9593 15.8568C34.9696 15.5651 35.0944 15.2891 35.3067 15.0887L37.6959 12.8524C37.8012 12.754 37.9248 12.6774 38.0597 12.6268C38.1947 12.5763 38.3383 12.553 38.4823 12.5581C38.6263 12.5632 38.7679 12.5967 38.8989 12.6566C39.0299 12.7166 39.1478 12.8018 39.2458 12.9074L53.152 27.9103Z" fill="#F8F8F8"/>
<path d="M77.5524 60V16.0815H96.5001C101.394 16.0815 105.179 17.0644 107.856 19.0303C110.575 20.9962 111.934 23.7777 111.934 27.3748C111.934 29.759 111.37 31.7667 110.24 33.3979C109.153 35.0292 107.647 36.2631 105.723 37.0996C103.841 37.9362 101.77 38.3544 99.5117 38.3544L100.578 36.8487C103.381 36.8487 105.786 37.2879 107.793 38.1662C109.843 39.0028 111.432 40.2785 112.562 41.9934C113.691 43.6665 114.256 45.7579 114.256 48.2675C114.256 51.9901 112.875 54.8762 110.115 56.9257C107.396 58.9752 103.276 60 97.755 60H77.5524ZM82.1953 56.1728H97.6922C101.54 56.1728 104.489 55.5245 106.539 54.2279C108.588 52.8894 109.613 50.7771 109.613 47.891C109.613 45.0468 108.588 42.9763 106.539 41.6797C104.489 40.3412 101.54 39.672 97.6922 39.672H81.6933V35.8448H96.1864C99.6999 35.8448 102.419 35.1756 104.343 33.8371C106.309 32.4986 107.292 30.5119 107.292 27.8767C107.292 25.1998 106.309 23.213 104.343 21.9164C102.419 20.5779 99.6999 19.9087 96.1864 19.9087H82.1953V56.1728ZM137.338 60.3137C134.16 60.3137 131.294 59.6026 128.743 58.1805C126.233 56.7166 124.247 54.7298 122.783 52.2201C121.319 49.6687 120.587 46.7617 120.587 43.4992C120.587 40.1948 121.319 37.2879 122.783 34.7782C124.247 32.2686 126.233 30.3027 128.743 28.8806C131.253 27.4585 134.118 26.7474 137.338 26.7474C140.601 26.7474 143.487 27.4585 145.997 28.8806C148.548 30.3027 150.535 32.2686 151.957 34.7782C153.421 37.2879 154.153 40.1948 154.153 43.4992C154.153 46.7617 153.421 49.6687 151.957 52.2201C150.535 54.7298 148.548 56.7166 145.997 58.1805C143.445 59.6026 140.559 60.3137 137.338 60.3137ZM137.338 56.361C139.723 56.361 141.835 55.8382 143.675 54.7925C145.516 53.705 146.959 52.1992 148.004 50.2752C149.092 48.3093 149.636 46.0506 149.636 43.4992C149.636 40.9059 149.092 38.6472 148.004 36.7232C146.959 34.7991 145.516 33.3143 143.675 32.2686C141.835 31.1811 139.744 30.6373 137.401 30.6373C135.059 30.6373 132.968 31.1811 131.127 32.2686C129.287 33.3143 127.823 34.7991 126.735 36.7232C125.648 38.6472 125.104 40.9059 125.104 43.4992C125.104 46.0506 125.648 48.3093 126.735 50.2752C127.823 52.1992 129.287 53.705 131.127 54.7925C132.968 55.8382 135.038 56.361 137.338 56.361ZM176.36 60.3137C173.223 60.3137 170.4 59.6026 167.89 58.1805C165.422 56.7584 163.478 54.7925 162.055 52.2829C160.633 49.7314 159.922 46.8035 159.922 43.4992C159.922 40.153 160.633 37.2251 162.055 34.7155C163.478 32.2059 165.422 30.2609 167.89 28.8806C170.4 27.4585 173.223 26.7474 176.36 26.7474C179.246 26.7474 181.819 27.3957 184.077 28.6924C186.378 29.989 188.197 31.8921 189.536 34.4018C190.916 36.8696 191.606 39.902 191.606 43.4992C191.606 47.0545 190.937 50.087 189.599 52.5966C188.26 55.1062 186.441 57.0303 184.14 58.3687C181.881 59.6654 179.288 60.3137 176.36 60.3137ZM176.674 56.361C179.016 56.361 181.108 55.8382 182.948 54.7925C184.83 53.705 186.294 52.1992 187.34 50.2752C188.427 48.3093 188.971 46.0506 188.971 43.4992C188.971 40.9059 188.427 38.6472 187.34 36.7232C186.294 34.7991 184.83 33.3143 182.948 32.2686C181.108 31.1811 179.016 30.6373 176.674 30.6373C174.373 30.6373 172.303 31.1811 170.463 32.2686C168.622 33.3143 167.158 34.7991 166.071 36.7232C164.983 38.6472 164.44 40.9059 164.44 43.4992C164.44 46.0506 164.983 48.3093 166.071 50.2752C167.158 52.1992 168.622 53.705 170.463 54.7925C172.303 55.8382 174.373 56.361 176.674 56.361ZM189.097 60V50.087L189.536 43.4364L188.908 36.7859V13.4464H193.363V60H189.097ZM206.02 72.4854C204.472 72.4854 202.988 72.2344 201.565 71.7325C200.185 71.2306 198.993 70.4777 197.989 69.4739L200.06 66.1486C200.896 66.9433 201.795 67.5498 202.757 67.9681C203.761 68.4282 204.87 68.6582 206.083 68.6582C207.547 68.6582 208.801 68.24 209.847 67.4034C210.935 66.6087 211.959 65.1866 212.921 63.137L215.055 58.306L215.557 57.6159L229.109 27.0611H233.5L217 63.9527C216.079 66.0859 215.055 67.7799 213.925 69.0347C212.838 70.2895 211.646 71.1679 210.349 71.6698C209.052 72.2135 207.609 72.4854 206.02 72.4854ZM214.804 60.9411L199.62 27.0611H204.263L217.69 57.3021L214.804 60.9411Z" fill="white"/>
<path d="M237.053 60.6V37.3859H242.425V60.6H237.053ZM247.934 60.6V37.3859H252.378L262.261 53.7684H259.906L269.623 37.3859H274.033L274.1 60.6H269.059L269.026 45.1129H269.954L262.194 58.1459H259.773L251.847 45.1129H252.975V60.6H247.934ZM290.717 60.9979C288.926 60.9979 287.257 60.7105 285.709 60.1357C284.184 59.5388 282.857 58.6986 281.73 57.6153C280.602 56.532 279.718 55.2607 279.077 53.8016C278.458 52.3424 278.148 50.7395 278.148 48.9929C278.148 47.2464 278.458 45.6435 279.077 44.1843C279.718 42.7251 280.602 41.4539 281.73 40.3706C282.879 39.2872 284.217 38.4582 285.742 37.8833C287.268 37.2864 288.937 36.9879 290.75 36.9879C292.762 36.9879 294.575 37.3417 296.189 38.0492C297.825 38.7345 299.196 39.7515 300.301 41.1002L296.852 44.2838C296.056 43.3773 295.172 42.703 294.199 42.2609C293.226 41.7966 292.165 41.5644 291.015 41.5644C289.932 41.5644 288.937 41.7413 288.031 42.095C287.124 42.4488 286.339 42.9573 285.676 43.6205C285.013 44.2838 284.493 45.0687 284.117 45.9751C283.764 46.8816 283.587 47.8875 283.587 48.9929C283.587 50.0984 283.764 51.1043 284.117 52.0108C284.493 52.9172 285.013 53.7021 285.676 54.3653C286.339 55.0286 287.124 55.5371 288.031 55.8908C288.937 56.2446 289.932 56.4214 291.015 56.4214C292.165 56.4214 293.226 56.2004 294.199 55.7582C295.172 55.2939 296.056 54.5975 296.852 53.6689L300.301 56.8526C299.196 58.2012 297.825 59.2292 296.189 59.9367C294.575 60.6442 292.751 60.9979 290.717 60.9979Z" fill="#3B82F6"/>
</svg>
